<?xml version="1.0" encoding="utf-8"?>
<!-- Generator: Adobe Illustrator 16.2.0, SVG Export Plug-In . SVG Version: 6.00 Build 0)  -->
<!DOCTYPE svg PUBLIC "-//W3C//DTD SVG 1.1//EN" "http://www.w3.org/Graphics/SVG/1.1/DTD/svg11.dtd">
<svg version="1.1" id="Layer_1" xmlns="http://www.w3.org/2000/svg" xmlns:xlink="http://www.w3.org/1999/xlink" x="0px" y="0px"
	 width="250px" height="250px" viewBox="0 0 250 250" enable-background="new 0 0 250 250" xml:space="preserve">
<g>
	<path fill="#FFFFFF" d="M125,223.174c-52.957,0-96-43.043-96-96c0-52.957,43.043-96,96-96c52.957,0,96,43.043,96,96
		C221,180.131,177.957,223.174,125,223.174z M125,39.261c-48.521,0-87.913,39.392-87.913,87.913S76.479,215.087,125,215.087
		s87.913-39.392,87.913-87.913S173.521,39.261,125,39.261z"/>
	<path fill="#FFFFFF" d="M125,223.174c-31.826,0-57.652-43.043-57.652-96c0-52.957,25.826-96,57.652-96s57.652,43.043,57.652,96
		C182.652,180.131,156.826,223.174,125,223.174z M125,39.261c-27.392,0-49.826,39.392-49.826,87.913S97.608,215.087,125,215.087
		s49.826-39.392,49.826-87.913S152.392,39.261,125,39.261z"/>
	<path fill="#FFFFFF" d="M125,223.174c-2.087,0-3.913-1.826-3.913-3.913V35.087c0-2.087,1.826-3.913,3.913-3.913
		s3.913,1.826,3.913,3.913V219C128.913,221.348,127.087,223.174,125,223.174z"/>
	<path fill="#FFFFFF" d="M217.087,131.087H32.913c-2.087,0-3.913-1.826-3.913-3.913s1.826-3.913,3.913-3.913h183.913
		c2.087,0,3.913,1.826,3.913,3.913C221,129.261,219.174,131.087,217.087,131.087z"/>
	<g>
		<path fill="#FFFFFF" d="M203.521,86.479H46.479c-2.087,0-3.914-1.826-3.914-3.913s1.827-3.913,3.914-3.913h157.043
			c2.087,0,3.913,1.826,3.913,3.913S205.608,86.479,203.521,86.479z"/>
		<path fill="#FFFFFF" d="M203.521,175.695H46.479c-2.087,0-3.914-1.825-3.914-3.913c0-2.087,1.827-3.912,3.914-3.912h157.043
			c2.087,0,3.913,1.825,3.913,3.912C207.435,173.87,205.608,175.695,203.521,175.695z"/>
	</g>
</g>
</svg>
