<?xml version="1.0" encoding="utf-8"?>
<!-- Generator: Adobe Illustrator 16.2.0, SVG Export Plug-In . SVG Version: 6.00 Build 0)  -->
<!DOCTYPE svg PUBLIC "-//W3C//DTD SVG 1.1//EN" "http://www.w3.org/Graphics/SVG/1.1/DTD/svg11.dtd">
<svg version="1.1" id="Layer_1" xmlns="http://www.w3.org/2000/svg" xmlns:xlink="http://www.w3.org/1999/xlink" x="0px" y="0px"
	 width="250px" height="250px" viewBox="0 0 250 250" enable-background="new 0 0 250 250" xml:space="preserve">
<g display="none">
	<rect x="35.054" y="10.054" display="inline" width="179.891" height="179.891"/>
</g>
<g>
	<g>
		<path fill="#FFFFFF" d="M75.987,23.361V70.26h-6.252V21.624c0-1.39-1.39-2.779-2.78-2.779c-1.39,0-2.779,1.39-2.779,2.779v48.982
			h-6.253V21.624c0-1.39-1.39-2.779-2.779-2.779c-1.39,0-2.779,1.39-2.779,2.779v48.982h-6.253V23.709
			c0-2.779-3.474-3.822-5.211-1.39c-0.347,1.042-1.041,2.084-1.041,3.474l-0.348,56.624c0,3.126,1.389,5.907,3.474,7.991
			l11.464,11.116l-2.433,81.986l-3.126,45.854c-0.347,5.211,5.211,10.075,11.812,10.075c6.6,0,12.158-4.518,11.811-10.075
			l-2.432-45.854l-2.431-80.943L79.461,91.45c2.432-2.084,3.474-4.863,3.474-7.99V25.793c0-1.39-0.347-3.127-1.389-4.169
			C79.461,19.54,75.987,20.93,75.987,23.361z"/>
		<path fill="#FFFFFF" d="M134.001,133.138V9.813c0,0-14.937-4.169-21.885,18.064c-6.948,21.886-5.906,94.144-5.906,94.144
			l13.896,11.463l-2.084,64.615l-2.779,34.044c-0.348,4.17,5.21,7.296,11.812,7.296c6.6,0,12.157-3.475,11.811-7.296l-2.778-34.393
			L134.001,133.138z"/>
		<path fill="#FFFFFF" d="M211.122,46.637c-4.168-16.675-11.462-23.97-18.063-28.139c-4.168-2.432-9.031-2.432-13.202,0
			c-6.253,3.821-14.242,11.463-18.063,28.139c-5.211,23.275-4.861,45.161,18.063,58.014l-2.432,78.859l-2.43,45.854
			c-0.35,5.211,5.21,10.075,11.811,10.075c6.599,0,12.159-4.518,11.811-10.075l-3.474-46.203l-2.432-78.51
			C215.986,91.798,216.682,69.564,211.122,46.637z"/>
	</g>
</g>
</svg>
