<?xml version="1.0" encoding="utf-8"?>
<!-- Generator: Adobe Illustrator 18.1.1, SVG Export Plug-In . SVG Version: 6.00 Build 0)  -->
<svg version="1.1" id="Layer_1" xmlns="http://www.w3.org/2000/svg" xmlns:xlink="http://www.w3.org/1999/xlink" x="0px" y="0px"
	 viewBox="0 0 92 92" enable-background="new 0 0 92 92" xml:space="preserve">
<path fill="#FFFFFF" d="M72.5,14.7c0-1.4-1.1-2.5-2.5-2.5H21.3c-1.4,0-2.5,1.1-2.5,2.5v64.2c0,1.4,1.1,2.5,2.5,2.5H70
	c1.4,0,2.5-1.1,2.5-2.5V14.7z M45.7,79.5c-0.9,0-1.5-0.7-1.5-1.5c0-0.9,0.7-1.5,1.5-1.5c0.8,0,1.5,0.7,1.5,1.5
	C47.3,78.8,46.6,79.5,45.7,79.5z M66.6,74.8H23.9V18.1h42.7V74.8z"/>
</svg>
