<?xml version="1.0" encoding="utf-8"?>
<!-- Generator: Adobe Illustrator 16.2.0, SVG Export Plug-In . SVG Version: 6.00 Build 0)  -->
<!DOCTYPE svg PUBLIC "-//W3C//DTD SVG 1.1//EN" "http://www.w3.org/Graphics/SVG/1.1/DTD/svg11.dtd">
<svg version="1.1" id="Layer_1" xmlns="http://www.w3.org/2000/svg" xmlns:xlink="http://www.w3.org/1999/xlink" x="0px" y="0px"
	 width="250px" height="250px" viewBox="0 0 250 250" enable-background="new 0 0 250 250" xml:space="preserve">
<path fill="#FFFFFF" d="M240.218,128.578c-4.053-6.417-13.508-8.105-27.354-8.443c-8.442-0.338-12.496-1.351-14.184-1.688
	c-0.338-0.337-0.338-0.675-0.676-0.675c0,0,0,0-0.338,0c-0.337-0.337-0.675-0.676-1.35-1.013c-0.339,0-7.092-2.702-17.224-6.754
	c0-1.013-0.337-2.026-1.351-2.702c-1.351-1.013-3.04-0.675-3.715,0.675c-2.364-1.013-4.729-1.688-7.092-2.701
	c0.338-1.014-0.338-2.026-1.35-2.702c-1.353-1.014-3.04-0.675-3.717,0.675l0,0c-2.362-1.013-4.727-1.689-6.752-2.702
	c0.675-1.351,0-2.702-1.015-3.377c-1.35-1.013-3.039-0.675-3.714,0.675l-0.337,0.676c-2.364-1.013-4.729-2.027-7.093-2.702
	c0.338-1.013-0.337-2.363-1.012-3.039c-1.353-1.013-3.04-0.675-3.717,0.676l0,0c-2.701-1.014-5.402-2.026-7.767-3.04
	c0-1.014-0.338-1.689-1.35-2.364c-1.015-0.675-2.701-0.675-3.716,0.338c-3.376-1.351-6.416-2.701-7.766-3.377
	c-11.482-5.065-13.846-6.079-14.521-6.079c-1.351-0.337-2.702,0.338-3.377,1.351l-6.078,11.82c-0.676,1.351-1.351,2.026-1.689,3.039
	c-3.039,1.688-6.416,3.377-11.144,4.728c-7.767,2.364-16.209,3.377-23.639,3.039c-0.675-0.337-1.351-0.337-2.026,0
	c-5.404-0.337-10.469-1.688-13.508-3.377c-8.442-5.065-8.105-9.118-6.754-14.521c1.351-5.065,0.676-7.43-2.701-9.456
	c-1.013-0.675-2.026-0.675-2.702-0.337c-1.688,0.675-2.702,2.363-4.052,5.403c-1.351,2.702-3.04,6.754-6.417,12.157
	C8.218,110.68,7.542,125.201,8.894,133.98c1.013,7.092,3.715,12.157,5.065,14.184c-1.013,0.675-1.351,2.027-1.013,3.377
	c0.675,1.352,3.377,8.781,6.079,11.482c0.337,0.338,1.013,1.013,2.026,1.35c0.337,0.339,0.337,0.676,0.675,0.676l8.78,6.417
	c0.676,0.337,1.351,0.675,2.364,0.337c0.675,0,1.351-0.675,1.688-1.35h-1.013l3.377,2.363c0.675,0.676,1.688,0.676,2.364,0.339
	c1.013-0.339,1.351-1.015,1.688-1.689l0,0l2.702,2.026c0.675,0.675,1.688,0.675,2.363,0.338c0.675-0.338,1.689-0.675,1.689-1.689
	l0.338-1.013l2.702,2.027c0.675,0.675,1.688,0.675,2.363,0.337c1.013-0.337,1.689-1.014,1.689-1.689v-0.337l3.039,2.026
	c0.676,0.338,1.351,0.675,2.364,0.338c0.675-0.338,1.351-0.675,1.688-1.352l0.337-0.676l4.391,2.364
	c0.675,0.338,1.688,0.338,2.701,0c0.675-0.337,1.352-1.351,1.352-2.026l0,0l3.714,1.689c0.675,0.337,1.688,0.337,2.364,0
	c0.675-0.338,1.351-1.014,1.689-1.689v-0.338l3.714,2.364c0.675,0.338,1.688,0.675,2.701,0.338c0.675-0.338,1.352-1.013,1.689-2.026
	v-0.676l3.715,2.364c0.675,0.338,1.688,0.675,2.701,0c1.013-0.337,1.351-1.351,1.689-2.026l5.74,2.026
	c0.675,0.338,1.014,0.338,1.689,0l5.741-1.688c0,1.014,0.337,1.688,1.351,2.026c0.675,0.676,1.688,0.676,2.701,0.337l4.39-2.025
	c0,0.676,0.676,1.351,1.014,1.688c0.337,0.337,1.013,0.337,1.688,0.337c0.338,0,0.675,0,1.013,0l4.052-1.35
	c0.337,0.338,0.676,1.013,1.014,1.35c0.675,0.676,1.688,0.676,2.701,0l3.715-1.687c0.338,0.675,0.676,1.012,1.013,1.35
	c0.675,0.337,1.689,0.676,2.702,0.337l4.052-2.025c0.339,0.676,0.676,1.014,1.014,1.351c1.013,0.675,2.026,0.675,2.701,0
	l4.053-2.364c0,1.014,0.676,1.689,1.351,2.364c1.013,0.338,2.026,0.338,2.701,0l3.378-2.026c0.337,0.676,0.676,1.015,1.013,1.352
	c1.013,0.675,2.027,0.675,2.702,0l4.39-2.364c0.338,0.675,0.676,1.013,1.013,1.351c1.014,0.338,2.027,0.677,2.702,0l4.391-2.363
	c0.337,0.676,0.675,1.351,1.35,1.688c0.676,0.338,1.689,0.676,2.701,0l5.065-2.364c0.339,0.677,0.676,1.353,1.353,1.689
	c1.012,0.338,2.025,0.338,2.701,0l5.065-3.039c0.338,0.675,0.675,1.013,1.013,1.35c0.676,0.677,1.688,0.677,2.363,0.339
	l13.171-3.715h0.337c4.054-0.675,12.158-3.715,19.588-7.092c14.182-6.416,15.534-9.117,15.871-10.132
	C245.959,144.112,243.595,133.98,240.218,128.578z M200.031,151.541c-1.351,2.026-2.364,3.716-3.039,5.403
	c-2.026,0.338-8.441,1.352-15.871,2.026c-9.457,0.676-35.46-0.338-52.345-3.039c4.053-3.715,9.793-8.779,12.833-10.807
	c5.403-4.053,9.455-4.053,13.846-4.391c0.675,0,1.013,0,1.688,0h0.676c26.003-2.025,42.887-4.052,52.343-5.402
	c4.391-0.675,15.872-2.364,18.911-7.43c1.014,0.338,2.026,0.676,3.04,1.013C224.346,131.955,207.123,140.397,200.031,151.541z
	 M48.404,119.122c19.249,0,37.146-3.377,48.967-9.118l-40.524,38.498h-3.04c-1.013-11.144-4.728-21.275-10.806-29.38
	C44.689,119.122,46.715,119.122,48.404,119.122z M113.243,108.653c3.376,1.014,6.754,2.364,10.468,3.377l-39.173,37.147
	c-4.39-0.339-8.442-0.676-11.482-0.676H71.03L113.243,108.653z M134.519,115.745c3.376,1.014,6.753,2.026,9.792,3.377
	l-35.458,33.433l0,0c-3.714-0.676-7.766-1.014-11.481-1.688L134.519,115.745z M222.32,126.214c-2.026,1.013-5.741,2.026-12.833,3.04
	c-9.119,1.35-25.665,3.376-52.005,5.403h-0.677c-0.676,0-1.013,0-1.688,0c-4.729,0.337-10.132,0.675-16.887,5.402
	c-4.051,3.039-13.17,11.144-16.546,14.184h-0.337l33.771-32.082c9.792,3.04,17.898,5.403,21.611,6.417
	c2.364,0.337,4.392,0.676,6.079,0.676c6.754,0,10.807-2.702,13.509-5.742c2.701,1.014,7.429,2.027,15.872,2.027
	C216.579,125.877,219.619,126.214,222.32,126.214z M132.154,105.952c0.337,0.338,1.012,0.338,1.688,0.338
	c1.014,0,1.688-0.338,2.364-1.352l3.378-5.065c2.364,1.013,4.727,1.688,7.091,2.702l-2.364,3.377
	c-1.013,1.351-0.676,3.04,0.676,3.715c0.338,0.337,1.013,0.337,1.688,0.337c1.014,0,1.688-0.337,2.364-1.351l3.039-4.728
	c2.364,1.013,4.728,1.688,6.754,2.702l-2.026,2.702c-1.013,1.351-0.676,3.039,0.677,3.715c0.337,0.337,1.012,0.337,1.687,0.337
	c1.015,0,1.689-0.337,2.364-1.351l2.701-3.715c2.364,1.014,4.729,1.689,6.755,2.702l-1.352,2.026
	c-1.013,1.351-0.675,3.039,0.676,4.052c0.339,0.338,1.014,0.338,1.688,0.338c1.015,0,1.689-0.338,2.364-1.352l2.363-3.377
	c7.093,2.702,12.496,4.729,15.534,6.079c-3.038,2.702-7.767,3.714-13.845,2.363c-10.469-2.026-51.33-15.871-73.281-23.301
	c-0.338,0-0.676-0.337-0.676-0.337c-2.026-0.676-4.053-1.351-5.741-2.026c0.675-0.338,1.013-0.675,1.688-1.013
	c2.702-1.689,4.729-3.04,7.43-4.052c6.079-2.026,13.508,0.337,13.508,0.337h0.337l-3.039,4.39c-1.013,1.351-0.675,3.04,0.675,3.715
	c0.337,0.337,1.013,0.337,1.688,0.337c1.013,0,1.688-0.337,2.364-1.351l3.715-5.403c2.363,1.014,4.728,2.026,7.43,3.04l-3.04,6.754
	C130.465,103.588,130.802,105.277,132.154,105.952z M103.112,85.352c1.013,0.338,2.364,1.014,4.052,1.689
	c-0.675,0-1.013,0.337-1.688,0.337c-1.688,0.675-3.039,1.351-4.728,2.026L103.112,85.352z M81.837,105.277
	c4.052-1.351,7.429-2.702,10.13-4.052c1.351,0.337,3.377,1.013,5.741,2.026c-9.793,5.741-27.354,9.793-45.927,10.13
	c1.688-1.351,3.377-3.039,5.065-4.728C65.289,108.992,74.745,107.641,81.837,105.277z M28.48,85.352
	c-1.351,6.417-0.675,13.171,9.793,18.911c3.04,1.689,7.092,3.04,11.482,3.715c-2.026,2.026-4.052,2.702-8.442,2.702
	c-5.065,0-12.495-3.377-21.275-9.455c1.013-1.689,1.688-3.378,3.039-5.404C25.441,91.431,27.467,88.054,28.48,85.352z
	 M17.674,106.29c3.039,2.363,6.754,4.39,10.469,6.416c0,0,0.337,0,0.337,0.338c11.145,7.429,18.574,20.6,19.924,35.795h-29.38
	c0-0.675,0-1.35-0.675-1.687C18.349,146.477,7.205,131.279,17.674,106.29z M64.952,162.687c-9.793,0-17.561-0.339-20.938-0.339
	c-15.196,0-20.938-2.025-22.288-3.04c-0.675-0.675-2.026-3.039-3.04-5.403h54.37c11.819,0,37.147,4.392,54.033,7.093
	c4.728,0.675,10.468,1.351,15.871,2.026C120.672,163.361,87.24,163.023,64.952,162.687z M238.191,146.813
	c-1.688,2.701-19.249,10.469-28.704,13.17c-0.338,0-0.676,0-1.015,0l-2.362,0.676c-2.702,0.675-4.053,0.338-4.39,0.338
	c0-0.675,0.675-2.701,3.039-6.754c6.753-10.807,26.002-19.249,31.405-21.613C238.529,137.695,239.541,144.112,238.191,146.813z"/>
</svg>
