<?xml version="1.0" encoding="utf-8"?>
<!-- Generator: Adobe Illustrator 16.2.0, SVG Export Plug-In . SVG Version: 6.00 Build 0)  -->
<!DOCTYPE svg PUBLIC "-//W3C//DTD SVG 1.1//EN" "http://www.w3.org/Graphics/SVG/1.1/DTD/svg11.dtd">
<svg version="1.1" id="Layer_1" xmlns="http://www.w3.org/2000/svg" xmlns:xlink="http://www.w3.org/1999/xlink" x="0px" y="0px"
	 width="250px" height="250px" viewBox="0 0 250 250" enable-background="new 0 0 250 250" xml:space="preserve">
<path fill="#FFFFFF" d="M179.025,77.188v8.509h21.715v125.3c0,7.042-5.869,12.911-12.911,12.911H58.128
	c-7.043,0-12.912-5.869-12.912-12.911V85.991h21.714v-8.51H36.707V211.29c0,11.737,9.684,21.714,21.714,21.714h129.701
	c11.737,0,21.714-9.684,21.714-21.714V77.188H179.025z M92.754,77.188v8.509h60.448v-8.509H92.754z M92.754,77.188v8.509h60.448
	v-8.509H92.754z"/>
<path fill="#FFFFFF" d="M170.515,101.542V64.276c0-26.116-21.42-47.537-47.537-47.537c-26.116,0-47.537,21.421-47.537,47.537v37.266
	c-4.988,1.762-8.51,6.456-8.51,12.325c0,7.042,5.869,12.911,12.911,12.911c7.043,0,12.912-5.868,12.912-12.911
	c0-5.576-3.815-10.271-8.51-12.325V64.276c0-21.421,17.606-38.734,38.734-38.734c21.128,0,38.734,17.607,38.734,38.734v37.266
	c-4.988,1.762-8.51,6.456-8.51,12.325c0,7.042,5.869,12.911,12.911,12.911s12.912-5.868,12.912-12.911
	C179.025,108.292,175.503,103.597,170.515,101.542z M79.842,118.269c-2.347,0-4.401-2.054-4.401-4.401s2.054-4.401,4.401-4.401
	c2.348,0,4.402,2.054,4.402,4.401S82.19,118.269,79.842,118.269z M166.113,118.269c-2.348,0-4.401-2.054-4.401-4.401
	s2.054-4.401,4.401-4.401s4.401,2.054,4.401,4.401S168.461,118.269,166.113,118.269z"/>
</svg>
