<?xml version="1.0" encoding="utf-8"?>
<!-- Generator: Adobe Illustrator 16.2.0, SVG Export Plug-In . SVG Version: 6.00 Build 0)  -->
<!DOCTYPE svg PUBLIC "-//W3C//DTD SVG 1.1//EN" "http://www.w3.org/Graphics/SVG/1.1/DTD/svg11.dtd">
<svg version="1.1" id="Layer_1" xmlns="http://www.w3.org/2000/svg" xmlns:xlink="http://www.w3.org/1999/xlink" x="0px" y="0px"
	 width="250px" height="250px" viewBox="0 0 250 250" enable-background="new 0 0 250 250" xml:space="preserve">
<g>
	<path fill="#FFFFFF" d="M126,198.675c-0.86,0-1.719-0.431-2.149-0.86c-0.43-0.431-9.457-8.597-18.055-21.923
		c-8.597-12.467-18.484-31.812-18.484-53.302c0-21.495,9.887-40.839,18.484-53.305c9.027-13.326,18.055-21.494,18.055-21.924
		c1.29-1.289,3.009-1.289,4.3,0c0.429,0.43,9.456,8.598,18.054,21.924c8.598,12.466,18.484,31.81,18.484,53.305
		c0,21.491-9.887,40.835-18.484,53.302c-9.027,13.326-18.054,21.492-18.054,21.923C127.72,198.244,126.859,198.675,126,198.675z
		 M126,54.239c-7.737,7.738-32.24,35.679-32.24,68.351c0,32.668,24.502,60.61,32.24,68.348c7.736-7.738,32.241-35.68,32.241-68.348
		C158.241,89.918,133.736,61.977,126,54.239z"/>
	<path fill="#FFFFFF" d="M126,198.675c-1.29,0-2.579-0.86-3.009-2.15c0-0.429-3.868-12.035-5.158-27.941
		c-1.29-15.045-0.43-36.538,10.318-55.453c10.746-18.914,28.801-30.95,42.126-37.398c14.188-7.308,26.223-9.887,26.651-10.317
		c1.721-0.43,3.439,0.43,3.87,2.15c0,0.429,3.868,12.036,5.156,27.941c1.292,15.045,0.432,36.539-10.315,55.453
		c-10.746,18.914-28.801,30.952-42.128,37.398c-14.186,7.308-26.221,9.887-26.651,10.317C126.43,198.675,126.43,198.675,126,198.675
		z M195.639,72.723c-10.317,3.009-45.567,15.045-61.902,43.846c-15.904,28.372-8.166,64.91-5.586,75.229
		c10.316-3.01,45.564-15.047,61.9-43.849C206.386,119.148,198.218,83.04,195.639,72.723z"/>
	<path fill="#FFFFFF" d="M157.38,202.973c-18.055,0-31.81-3.867-32.24-4.298c-1.719-0.431-2.579-2.15-2.149-3.869
		c0-0.43,2.58-11.606,8.598-25.362c6.018-12.467,16.335-30.09,33.959-40.408c12.468-7.307,27.941-11.176,45.566-11.176
		c18.053,0,31.811,3.869,32.239,4.298c1.72,0.432,2.58,2.149,2.148,3.871c0,0.429-2.577,11.604-8.595,25.36
		c-6.019,12.466-16.335,30.091-33.962,40.409C190.48,199.105,175.006,202.973,157.38,202.973z M129.869,193.515
		c4.728,1.291,15.476,3.01,27.511,3.01c16.766,0,30.951-3.438,42.126-10.315c25.793-15.477,36.109-48.146,38.69-58.464
		c-4.729-1.288-15.046-3.008-27.511-3.008c-16.767,0-30.953,3.438-42.128,10.318C142.765,150.528,132.448,183.199,129.869,193.515z"
		/>
	<path fill="#FFFFFF" d="M126,198.675c-0.43,0-0.43,0-0.86,0c-0.43,0-12.466-3.01-26.651-10.317
		c-13.327-6.878-31.38-18.484-42.128-37.398c-10.747-18.914-11.606-40.408-10.316-55.453c1.291-15.906,5.159-27.512,5.159-27.941
		c0.43-1.72,2.149-2.58,3.869-2.15c0.43,0,12.466,3.01,26.652,10.317c13.326,6.877,31.38,18.484,42.127,37.398
		c10.746,18.915,11.607,40.408,10.317,55.453c-1.291,15.906-4.729,27.513-5.158,27.941C128.579,197.814,127.29,198.675,126,198.675z
		 M56.792,72.723c-2.58,10.317-10.317,46.855,5.588,75.226c15.905,28.372,51.154,40.408,61.901,43.849
		c2.579-10.318,10.316-46.856-5.589-75.229C102.357,87.769,67.108,75.732,56.792,72.723z"/>
	<path fill="#FFFFFF" d="M94.62,202.973L94.62,202.973c-17.625,0-33.1-3.867-45.566-11.175
		c-17.195-10.318-27.941-27.943-33.96-40.409c-6.447-13.757-8.597-24.502-8.597-25.36c-0.43-1.722,0.43-3.439,2.15-3.871
		c0.429,0,14.186-4.298,32.24-4.298c17.625,0,33.1,3.869,45.566,11.176c17.195,10.318,27.941,27.941,33.959,40.408
		c6.448,13.756,8.598,24.502,8.598,25.362c0.429,1.719-0.431,3.438-2.15,3.869C126.43,199.105,112.674,202.973,94.62,202.973z
		 M13.805,127.745c2.579,9.887,12.896,42.558,38.688,58.464c11.606,6.877,25.792,10.315,42.127,10.315
		c12.466,0,22.783-2.148,27.511-3.01c-2.58-9.887-12.896-42.556-38.688-58.46c-11.606-6.88-25.792-10.318-42.127-10.318
		C28.85,124.737,18.534,126.457,13.805,127.745z"/>
</g>
</svg>
